<svg width="40" height="65" viewBox="0 0 40 65" fill="none" xmlns="http://www.w3.org/2000/svg">
<path d="M36.3898 64.7002H9.98562C9.01801 64.7002 8.23364 63.9157 8.23364 62.9483V55.3247C8.23364 54.3573 9.01801 53.5728 9.98562 53.5728H23.9999C24.9675 53.5728 25.7518 54.3573 25.7518 55.3247C25.7518 56.2922 24.9675 57.0767 23.9999 57.0767H11.7376V61.1964H34.6378V57.0767H31.7561C30.7885 57.0767 30.0041 56.2922 30.0041 55.3247C30.0041 54.3573 30.7885 53.5728 31.7561 53.5728H36.3898C37.3574 53.5728 38.1417 54.3573 38.1417 55.3247V62.9483C38.1417 63.9157 37.3574 64.7002 36.3898 64.7002Z" fill="#419F70"/>
<path d="M25.1492 31.222V29.529C25.1492 27.8364 23.7685 26.3949 21.9939 26.3349C20.1309 26.2719 18.5999 27.6926 18.5999 29.4542V31.2811L18.5647 14.9254C18.5647 13.2015 17.0987 11.804 15.2901 11.804H15.1641C13.3555 11.804 11.8895 13.2015 11.8895 14.9254V26.6712V29.3719V37.5346L8.70326 29.7764C8.14281 28.1028 6.26384 27.1799 4.50808 27.7142C2.75232 28.2494 1.78396 30.0395 2.34466 31.7138L9.34066 46.1208C10.2048 47.9002 12.0743 49.0395 14.1312 49.0404L32.9616 49.0486C35.8793 49.0499 38.2453 46.7958 38.2454 44.0146L38.2473 31.6442C38.2473 29.9202 36.7813 28.5227 34.9727 28.5227C33.1641 28.5227 31.6981 29.9202 31.6981 31.6442V30.9023C31.6981 29.1783 30.2321 27.7808 28.4235 27.7808C26.615 27.7808 25.149 29.1783 25.149 30.9023" fill="white"/>
<path d="M32.965 50.8007C32.9637 50.8007 32.9627 50.8007 32.9613 50.8007L14.1311 50.7925C11.4159 50.7913 8.91719 49.258 7.76546 46.8862L0.769335 32.4793C0.736352 32.4115 0.707793 32.3416 0.684036 32.2703C0.269042 31.0303 0.371275 29.7053 0.972282 28.5398C1.5949 27.3319 2.66953 26.4436 3.99817 26.0387C6.45123 25.2923 9.07831 26.4563 10.1384 28.6614V14.9254C10.1384 12.238 12.3933 10.052 15.1648 10.052H15.2908C18.0623 10.052 20.3173 12.2383 20.3173 14.9254L20.3386 24.816C20.8878 24.6446 21.4682 24.5635 22.0539 24.584C23.6817 24.639 25.0979 25.4397 25.9726 26.6492C26.6985 26.2543 27.5347 26.0293 28.4243 26.0293C29.8939 26.0293 31.2184 26.644 32.1384 27.6221C32.946 27.0856 33.9227 26.7712 34.9736 26.7712C37.7451 26.7712 40 28.9575 40 31.6443L39.9981 44.0149C39.998 45.8437 39.2551 47.5589 37.9066 48.8435C36.582 50.1057 34.8269 50.8007 32.965 50.8007ZM3.98061 31.0711L10.9173 45.3556C11.4873 46.5292 12.7493 47.2881 14.1327 47.2886L32.9631 47.2968C32.9636 47.2968 32.9643 47.2968 32.9648 47.2968C33.923 47.2968 34.8197 46.9452 35.4899 46.3068C36.1376 45.69 36.4943 44.8757 36.4943 44.0146L36.4962 31.6442C36.4962 30.8895 35.8132 30.2752 34.9736 30.2752C34.134 30.2752 33.451 30.8896 33.451 31.6446C33.451 32.612 32.6666 33.3965 31.699 33.3965C30.7314 33.3965 29.947 32.612 29.947 31.6446V30.9028C29.947 30.1477 29.264 29.5334 28.4244 29.5334C27.5848 29.5334 26.9018 30.1479 26.9018 30.9028V31.2224C26.9018 32.1898 26.1174 32.9743 25.1498 32.9743C24.1822 32.9743 23.3979 32.1898 23.3979 31.2224V29.5294C23.3979 28.7608 22.7418 28.1134 21.9351 28.0862C21.4868 28.0725 21.0679 28.2262 20.7608 28.5228C20.4975 28.7773 20.3523 29.1082 20.3523 29.4545V31.2814C20.3523 32.2482 19.569 33.0322 18.6023 33.0333C18.6018 33.0333 18.6009 33.0333 18.6004 33.0333C17.6345 33.0335 16.8506 32.2515 16.8484 31.285V31.281L16.8131 14.9294C16.8131 14.1705 16.13 13.5561 15.2904 13.5561H15.1645C14.3249 13.5561 13.6418 14.1705 13.6418 14.9255V37.5348C13.6418 38.3715 13.0501 39.0916 12.229 39.2537C11.4087 39.4163 10.5871 38.9747 10.2693 38.2004L7.08308 30.4423C7.06842 30.4064 7.05464 30.3699 7.04239 30.3331C6.7856 29.5663 5.85895 29.1348 5.0186 29.3904C4.60322 29.5173 4.27176 29.7853 4.08625 30.1451C3.97846 30.3546 3.87736 30.6797 3.98061 31.0711Z" fill="#419F70"/>
<path d="M15.104 8.12814C14.1364 8.12814 13.3521 7.34364 13.3521 6.37617V1.75197C13.3521 0.784495 14.1364 0 15.104 0C16.0716 0 16.856 0.784495 16.856 1.75197V6.37617C16.8559 7.34364 16.0716 8.12814 15.104 8.12814Z" fill="#419F70"/>
<path d="M8.93221 10.6843C8.48373 10.6843 8.03562 10.5132 7.69342 10.1711L4.42376 6.90147C3.7396 6.21732 3.7396 5.10805 4.42376 4.42377C5.10792 3.73986 6.21718 3.73999 6.90134 4.42377L10.1711 7.69355C10.8553 8.37771 10.8553 9.48697 10.1711 10.1713C9.82904 10.5133 9.38069 10.6843 8.93221 10.6843Z" fill="#419F70"/>
<path d="M28.4558 16.856H23.8316C22.864 16.856 22.0796 16.0715 22.0796 15.104C22.0796 14.1365 22.864 13.3521 23.8316 13.3521H28.4558C29.4234 13.3521 30.2077 14.1365 30.2077 15.104C30.2077 16.0715 29.4234 16.856 28.4558 16.856Z" fill="#419F70"/>
<path d="M6.37604 16.856H1.75197C0.784368 16.856 0 16.0715 0 15.104C0 14.1365 0.784368 13.3521 1.75197 13.3521H6.37617C7.34377 13.3521 8.12814 14.1365 8.12814 15.104C8.12814 16.0715 7.34364 16.856 6.37604 16.856Z" fill="#419F70"/>
<path d="M21.2753 10.6842C20.827 10.6842 20.3785 10.5131 20.0366 10.1711C19.3524 9.4869 19.3524 8.37764 20.0366 7.69335L23.3063 4.42357C23.9905 3.73967 25.0998 3.73967 25.784 4.42357C26.4682 5.10773 26.4682 6.21699 25.784 6.90128L22.5143 10.1711C22.1721 10.5133 21.7237 10.6842 21.2753 10.6842Z" fill="#419F70"/>
</svg>
